#!OML:ASF F:\twosubjects\two\Thursday\Session 1\Rory.ASF
:FULLY-SPECIFIED
:DEGREES
660
root 11.3637 18.6243 12.5732 -171.829 -0.103227 -183.166
lowerback 4.64283 -1.68065 -0.851088
upperback 3.88894 -2.52243 0.8227
thorax 1.46825 -1.39556 1.39897
lowerneck -8.82965 -9.88659 -6.06182
upperneck 31.6228 -12.7932 7.80917
head 12.9648 -4.55638 2.45082
rclavicle -4.79071e-014 -5.96354e-015
rhumerus -26.7603 -22.6561 -68.9491
rradius 80.7968
rwrist -15.6676
rhand -46.5185 36.2863
rfingers 7.12502
rthumb -19.2443 7.21842
lclavicle -4.79071e-014 -5.96354e-015
lhumerus -30.1378 -13.8352 94.6485
lradius 58.351
lwrist -7.29819
lhand -11.5034 27.9839
lfingers 7.12502
lthumb 14.5355 57.4547
rfemur -18.0963 8.9967 15.0417
rtibia 31.9573
rfoot -17.7696 -5.06614
rtoes -1.16286
lfemur -18.1905 8.46741 -24.592
ltibia 32.9852
lfoot -14.6853 -2.1855
ltoes 11.7636
661
root 11.3836 18.6297 12.5653 -171.876 -0.6567 -183.544
lowerback 4.63547 -1.70323 -1.1508
upperback 3.94849 -2.56611 0.81295
thorax 1.54791 -1.42641 1.55595
lowerneck -8.46231 -9.99646 -6.32293
upperneck 31.3931 -12.9438 8.00409
head 12.8431 -4.64903 2.55627
rclavicle -2.00773e-014 4.77083e-015
rhumerus -28.1009 -23.6226 -68.7031
rradius 80.4906
rwrist -16.9174
rhand -48.0749 35.2874
rfingers 7.12502
rthumb -20.7404 6.37578
lclavicle -2.00773e-014 4.77083e-015
lhumerus -29.8651 -13.775 94.8157
lradius 58.4219
lwrist -7.54824
lhand -10.0092 27.0676
lfingers 7.12502
lthumb 15.9748 56.4289
rfemur -17.8607 8.9758 14.7668
rtibia 31.9249
rfoot -17.8992 -5.62698
rtoes -0.27367
lfemur -18.621 8.99679 -24.8429
ltibia 33.7181
lfoot -14.4196 -2.80702
ltoes 5.66188
662
root 11.4088 18.6258 12.5576 -172.059 -1.25127 -183.801
lowerback 4.79917 -1.71273 -1.30627
upperback 4.07416 -2.59944 0.786868
thorax 1.59338 -1.45349 1.62024
lowerneck -8.49379 -10.1394 -6.48321
upperneck 31.4709 -13.1455 8.14313
head 12.9292 -4.72972 2.60593
rclavicle 7.35503e-015 0
rhumerus -29.4096 -24.5321 -68.5496
rradius 80.0567
rwrist -18.141
rhand -49.768 35.0896
rfingers 7.12502
rthumb -22.3665 6.36435
lclavicle 7.35503e-015 0
lhumerus -29.5582 -14.1535 95.0289
lradius 58.3936
lwrist -7.49527
lhand -10.8686 27.4349
lfingers 7.12502
lthumb 15.1471 56.8606
rfemur -17.4422 9.117 14.7027
rtibia 31.8886
rfoot -18.0153 -6.47398
rtoes -0.235941
lfemur -18.8575 9.35949 -24.8719
ltibia 34.475
lfoot -14.332 -3.62995
ltoes 3.59383
663
root 11.4366 18.622 12.5494 -172.204 -1.89573 -183.745
lowerback 5.01454 -1.74212 -1.13753
upperback 4.0657 -2.63749 0.812308
thorax 1.45985 -1.46916 1.56203
lowerneck -8.38728 -10.3075 -6.60126
upperneck 31.815 -13.3327 8.21609
head 13.0904 -4.78045 2.64102
rclavicle -1.05356e-014 -3.02153e-014
rhumerus -30.9082 -25.4107 -68.3108
rradius 79.2367
rwrist -18.7372
rhand -49.8465 33.4802
rfingers 7.12502
rthumb -22.4417 4.76404
lclavicle -1.05356e-014 -3.02153e-014
lhumerus -29.595 -14.314 95.2258
lradius 58.4551
lwrist -8.28081
lhand -10.8134 28.7964
lfingers 7.12502
lthumb 15.2002 58.218
rfemur -17.0714 9.31234 15.0132
rtibia 31.838
rfoot -18.0405 -7.25654
rtoes 1.04132
lfemur -19.1226 9.56583 -24.5037
ltibia 35.2342
lfoot -14.2359 -4.55682
ltoes 4.50249
664
root 11.4597 18.6285 12.5419 -172.086 -2.39316 -183.708
lowerback 4.97788 -1.80007 -1.0629
upperback 4.00821 -2.70567 0.886917
thorax 1.42372 -1.49922 1.59918
lowerneck -8.15797 -10.3732 -6.78965
upperneck 31.903 -13.3814 8.30045
head 13.1094 -4.80408 2.71144
rclavicle -4.41302e-014 -6.75868e-015
rhumerus -32.0346 -25.9797 -68.2498
rradius 78.2564
rwrist -19.2476
rhand -50.644 32.104
rfingers 7.12502
rthumb -23.2071 3.48223
lclavicle -4.41302e-014 -6.75868e-015
lhumerus -29.6109 -14.1041 95.3404
lradius 58.6893
lwrist -9.14181
lhand -9.50731 29.6699
lfingers 7.12502
lthumb 16.4581 58.9918
rfemur -17.0584 9.49705 15.2015
rtibia 31.7987
rfoot -17.9999 -7.89419
rtoes 2.40541
lfemur -19.7221 10.0902 -24.2321
ltibia 35.9786
lfoot -13.9892 -5.73926
ltoes 3.17615
